<?xml version="1.0"?>
<svg width="250mm" height="200mm" viewBox="0 0 4100 2720"
     xmlns="http://www.w3.org/2000/svg"
     xmlns:xlink="http://www.w3.org/1999/xlink"
     xmlns:ev="http://www.w3.org/2001/xml-events">
<g font-family="Verdana" font-size="8">
  <line x1="800" y1="2590" x2="2050" y2="1230" style="stroke:silver;"/>
  <line x1="3100" y1="1390" x2="3100" y2="30" style="stroke:silver;"/>
  <line x1="3100" y1="1430" x2="3100" y2="70" style="stroke:silver;"/>
  <line x1="3100" y1="1470" x2="3100" y2="110" style="stroke:silver;"/>
  <line x1="3100" y1="1510" x2="3100" y2="150" style="stroke:silver;"/>
  <line x1="3100" y1="1550" x2="3100" y2="190" style="stroke:silver;"/>
  <line x1="3100" y1="1590" x2="3100" y2="230" style="stroke:silver;"/>
  <line x1="3100" y1="1630" x2="3100" y2="270" style="stroke:silver;"/>
  <line x1="3100" y1="1670" x2="3100" y2="310" style="stroke:silver;"/>
  <line x1="3100" y1="1710" x2="3100" y2="350" style="stroke:silver;"/>
  <line x1="3100" y1="1750" x2="3100" y2="390" style="stroke:silver;"/>
  <line x1="3100" y1="1790" x2="3100" y2="430" style="stroke:silver;"/>
  <line x1="3100" y1="1830" x2="3100" y2="470" style="stroke:silver;"/>
  <line x1="3100" y1="1870" x2="3100" y2="510" style="stroke:silver;"/>
  <line x1="3100" y1="1910" x2="3100" y2="550" style="stroke:silver;"/>
  <line x1="3100" y1="1950" x2="3100" y2="590" style="stroke:silver;"/>
  <line x1="3100" y1="1990" x2="3100" y2="630" style="stroke:silver;"/>
  <line x1="3100" y1="2030" x2="3100" y2="670" style="stroke:silver;"/>
  <line x1="3100" y1="2070" x2="3100" y2="710" style="stroke:silver;"/>
  <line x1="3100" y1="2110" x2="3100" y2="750" style="stroke:silver;"/>
  <line x1="3100" y1="2150" x2="3100" y2="790" style="stroke:silver;"/>
  <line x1="3100" y1="2190" x2="3100" y2="830" style="stroke:silver;"/>
  <line x1="3100" y1="2230" x2="3100" y2="870" style="stroke:silver;"/>
  <line x1="3100" y1="2270" x2="3100" y2="910" style="stroke:silver;"/>
  <line x1="3100" y1="2310" x2="3100" y2="950" style="stroke:silver;"/>
  <line x1="3100" y1="2350" x2="3100" y2="990" style="stroke:silver;"/>
  <line x1="3100" y1="2390" x2="3100" y2="1030" style="stroke:silver;"/>
  <line x1="3100" y1="2430" x2="3100" y2="1070" style="stroke:silver;"/>
  <line x1="3100" y1="2470" x2="1500" y2="30" style="stroke:silver;"/>
  <line x1="2050" y1="2630" x2="1100" y2="30" style="stroke:silver;"/>
  <rect x="3400" y="20" width="200" height="20" style="fill:chartreuse; stroke: black;"/>1
  <text x="3402" y="33">THERMAL ZONE: ZONE1</text>
  <rect x="200" y="2700" width="200" height="20" style="fill:snow; stroke: black;"/>28
  <text x="202" y="2713">OutdoorAir:NodeList</text>
  <rect x="1000" y="1340" width="200" height="20" style="fill:wheat; stroke: black;"/>39
  <text  x="1002" y="1348">HOT WATER LOOP HW SUPPLY SIDE
  <tspan x="1002" y="1356">BYPASS PIPE</tspan></text>
  <rect x="1800" y="1340" width="200" height="20" style="fill:wheat; stroke: black;"/>40
  <text x="1802" y="1353">HOT WATER LOOP HW SUPPLY OUTLET PIPE</text>
  <rect x="2200" y="1340" width="200" height="20" style="fill:wheat; stroke: black;"/>41
  <text x="2202" y="1353">HOT WATER LOOP HW DEMAND INLET PIPE</text>
  <rect x="3000" y="1340" width="200" height="20" style="fill:wheat; stroke: black;"/>42
  <text  x="3002" y="1348">HOT WATER LOOP HW DEMAND SIDE
  <tspan x="3002" y="1356">BYPASS PIPE</tspan></text>
  <rect x="3800" y="2460" width="200" height="20" style="fill:wheat; stroke: black;"/>43
  <text x="3802" y="2473">HOT WATER LOOP HW DEMAND OUTLET PIPE</text>
  <rect x="700" y="2540" width="200" height="20" style="fill:wheat; stroke: black;"/>44
  <text  x="702" y="2548">CHILLED WATER LOOP CHW SUPPLY SIDE
  <tspan x="702" y="2556">BYPASS PIPE</tspan></text>
  <rect x="1200" y="2580" width="200" height="20" style="fill:wheat; stroke: black;"/>45
  <text  x="1202" y="2588">CHILLED WATER LOOP CHW SUPPLY
  <tspan x="1202" y="2596">OUTLET PIPE</tspan></text>
  <rect x="1450" y="2580" width="200" height="20" style="fill:wheat; stroke: black;"/>46
  <text  x="1452" y="2588">CHILLED WATER LOOP CHW DEMAND INLET
  <tspan x="1452" y="2596">PIPE</tspan></text>
  <rect x="1950" y="2580" width="200" height="20" style="fill:wheat; stroke: black;"/>47
  <text  x="1952" y="2588">CHILLED WATER LOOP CHW DEMAND SIDE
  <tspan x="1952" y="2596">BYPASS PIPE</tspan></text>
  <rect x="2450" y="2620" width="200" height="20" style="fill:wheat; stroke: black;"/>48
  <text  x="2452" y="2628">CHILLED WATER LOOP CHW DEMAND
  <tspan x="2452" y="2636">OUTLET PIPE</tspan></text>
  <rect x="1200" y="1180" width="200" height="20" style="fill:wheat; stroke: black;"/>49
  <text  x="1202" y="1188">CHILLED WATER LOOP CNDW SUPPLY
  <tspan x="1202" y="1196">OUTLET PIPE</tspan></text>
  <rect x="700" y="1140" width="200" height="20" style="fill:wheat; stroke: black;"/>50
  <text  x="702" y="1148">CHILLED WATER LOOP CNDW SUPPLY SIDE
  <tspan x="702" y="1156">BYPASS PIPE</tspan></text>
  <rect x="1450" y="1180" width="200" height="20" style="fill:wheat; stroke: black;"/>51
  <text  x="1452" y="1188">CHILLED WATER LOOP CNDW DEMAND
  <tspan x="1452" y="1196">INLET PIPE</tspan></text>
  <rect x="1950" y="1180" width="200" height="20" style="fill:wheat; stroke: black;"/>52
  <text  x="1952" y="1188">CHILLED WATER LOOP CNDW DEMAND SIDE
  <tspan x="1952" y="1196">BYPASS PIPE</tspan></text>
  <rect x="2450" y="1220" width="200" height="20" style="fill:wheat; stroke: black;"/>53
  <text  x="2452" y="1228">CHILLED WATER LOOP CNDW DEMAND
  <tspan x="2452" y="1236">OUTLET PIPE</tspan></text>
  <rect x="2600" y="1340" width="200" height="20" style="fill:wheat; stroke: black;"/>54
  <text x="2602" y="1353">HOT WATER LOOP HW DEMAND SPLITTER</text>
  <rect x="3400" y="2460" width="200" height="20" style="fill:wheat; stroke: black;"/>55
  <text x="3402" y="2473">HOT WATER LOOP HW DEMAND MIXER</text>
  <rect x="1000" y="1300" width="200" height="20" style="fill:indianred; stroke: black;"/>56
  <text x="1002" y="1313">MAIN BOILER</text>
  <rect x="600" y="1300" width="200" height="20" style="fill:wheat; stroke: black;"/>57
  <text x="602" y="1313">HOT WATER LOOP HW SUPPLY SPLITTER</text>
  <rect x="1400" y="1340" width="200" height="20" style="fill:wheat; stroke: black;"/>58
  <text x="1402" y="1353">HOT WATER LOOP HW SUPPLY MIXER</text>
  <rect x="1700" y="2580" width="200" height="20" style="fill:wheat; stroke: black;"/>59
  <text  x="1702" y="2588">CHILLED WATER LOOP CHW DEMAND
  <tspan x="1702" y="2596">SPLITTER</tspan></text>
  <rect x="2200" y="2620" width="200" height="20" style="fill:wheat; stroke: black;"/>60
  <text x="2202" y="2633">CHILLED WATER LOOP CHW DEMAND MIXER</text>
  <rect x="700" y="2580" width="200" height="20" style="fill:powderblue; stroke: black;"/>61
  <text x="702" y="2593">MAIN CHILLER</text>
  <rect x="1950" y="1220" width="200" height="20" style="fill:powderblue; stroke: black;"/>62
  <text x="1952" y="1233">MAIN CHILLER</text>
  <rect x="450" y="2540" width="200" height="20" style="fill:wheat; stroke: black;"/>63
  <text  x="452" y="2548">CHILLED WATER LOOP CHW SUPPLY
  <tspan x="452" y="2556">SPLITTER</tspan></text>
  <rect x="950" y="2580" width="200" height="20" style="fill:wheat; stroke: black;"/>64
  <text x="952" y="2593">CHILLED WATER LOOP CHW SUPPLY MIXER</text>
  <rect x="1700" y="1180" width="200" height="20" style="fill:wheat; stroke: black;"/>65
  <text  x="1702" y="1188">CHILLED WATER LOOP CNDW DEMAND
  <tspan x="1702" y="1196">SPLITTER</tspan></text>
  <rect x="2200" y="1220" width="200" height="20" style="fill:wheat; stroke: black;"/>66
  <text x="2202" y="1233">CHILLED WATER LOOP CNDW DEMAND MIXER</text>
  <rect x="700" y="1180" width="200" height="20" style="fill:pink; stroke: black;"/>67
  <text x="702" y="1193">MAIN TOWER</text>
  <rect x="450" y="1140" width="200" height="20" style="fill:wheat; stroke: black;"/>68
  <text  x="452" y="1148">CHILLED WATER LOOP CNDW SUPPLY
  <tspan x="452" y="1156">SPLITTER</tspan></text>
  <rect x="950" y="1180" width="200" height="20" style="fill:wheat; stroke: black;"/>69
  <text x="952" y="1193">CHILLED WATER LOOP CNDW SUPPLY MIXER</text>
  <rect x="2200" y="20" width="200" height="20" style="fill:wheat; stroke: black;"/>70
  <text x="2202" y="33">VAV SYS 1 ZONE SPLITTER</text>
  <rect x="2600" y="20" width="200" height="20" style="fill:wheat; stroke: black;"/>71
  <text x="2602" y="33">THERMAL ZONE: ZONE1 VAV REHEAT</text>
  <rect x="3000" y="1380" width="200" height="20" style="fill:salmon; stroke: black;"/>72
  <text x="3002" y="1393">THERMAL ZONE: ZONE1 REHEAT COIL</text>
  <rect x="3000" y="20" width="200" height="20" style="fill:salmon; stroke: black;"/>73
  <text x="3002" y="33">THERMAL ZONE: ZONE1 REHEAT COIL</text>
  <rect x="3000" y="1420" width="200" height="20" style="fill:salmon; stroke: black;"/>74
  <text x="3002" y="1433">THERMAL ZONE: ZONE2 REHEAT COIL</text>
  <rect x="3000" y="60" width="200" height="20" style="fill:salmon; stroke: black;"/>75
  <text x="3002" y="73">THERMAL ZONE: ZONE2 REHEAT COIL</text>
  <rect x="3000" y="1460" width="200" height="20" style="fill:salmon; stroke: black;"/>76
  <text x="3002" y="1473">THERMAL ZONE: ZONE3 REHEAT COIL</text>
  <rect x="3000" y="100" width="200" height="20" style="fill:salmon; stroke: black;"/>77
  <text x="3002" y="113">THERMAL ZONE: ZONE3 REHEAT COIL</text>
  <rect x="3000" y="1500" width="200" height="20" style="fill:salmon; stroke: black;"/>78
  <text x="3002" y="1513">THERMAL ZONE: ZONE4 REHEAT COIL</text>
  <rect x="3000" y="140" width="200" height="20" style="fill:salmon; stroke: black;"/>79
  <text x="3002" y="153">THERMAL ZONE: ZONE4 REHEAT COIL</text>
  <rect x="3000" y="1540" width="200" height="20" style="fill:salmon; stroke: black;"/>80
  <text x="3002" y="1553">THERMAL ZONE: ZONE5 REHEAT COIL</text>
  <rect x="3000" y="180" width="200" height="20" style="fill:salmon; stroke: black;"/>81
  <text x="3002" y="193">THERMAL ZONE: ZONE5 REHEAT COIL</text>
  <rect x="3000" y="1580" width="200" height="20" style="fill:salmon; stroke: black;"/>82
  <text x="3002" y="1593">THERMAL ZONE: ZONE6 REHEAT COIL</text>
  <rect x="3000" y="220" width="200" height="20" style="fill:salmon; stroke: black;"/>83
  <text x="3002" y="233">THERMAL ZONE: ZONE6 REHEAT COIL</text>
  <rect x="3000" y="1620" width="200" height="20" style="fill:salmon; stroke: black;"/>84
  <text x="3002" y="1633">THERMAL ZONE: ZONE7 REHEAT COIL</text>
  <rect x="3000" y="260" width="200" height="20" style="fill:salmon; stroke: black;"/>85
  <text x="3002" y="273">THERMAL ZONE: ZONE7 REHEAT COIL</text>
  <rect x="3000" y="1660" width="200" height="20" style="fill:salmon; stroke: black;"/>86
  <text x="3002" y="1673">THERMAL ZONE: ZONE8 REHEAT COIL</text>
  <rect x="3000" y="300" width="200" height="20" style="fill:salmon; stroke: black;"/>87
  <text x="3002" y="313">THERMAL ZONE: ZONE8 REHEAT COIL</text>
  <rect x="3000" y="1700" width="200" height="20" style="fill:salmon; stroke: black;"/>88
  <text x="3002" y="1713">THERMAL ZONE: ZONE9 REHEAT COIL</text>
  <rect x="3000" y="340" width="200" height="20" style="fill:salmon; stroke: black;"/>89
  <text x="3002" y="353">THERMAL ZONE: ZONE9 REHEAT COIL</text>
  <rect x="3000" y="1740" width="200" height="20" style="fill:salmon; stroke: black;"/>90
  <text x="3002" y="1753">THERMAL ZONE: ZONE10 REHEAT COIL</text>
  <rect x="3000" y="380" width="200" height="20" style="fill:salmon; stroke: black;"/>91
  <text x="3002" y="393">THERMAL ZONE: ZONE10 REHEAT COIL</text>
  <rect x="3000" y="1780" width="200" height="20" style="fill:salmon; stroke: black;"/>92
  <text x="3002" y="1793">THERMAL ZONE: ZONE11 REHEAT COIL</text>
  <rect x="3000" y="420" width="200" height="20" style="fill:salmon; stroke: black;"/>93
  <text x="3002" y="433">THERMAL ZONE: ZONE11 REHEAT COIL</text>
  <rect x="3000" y="1820" width="200" height="20" style="fill:salmon; stroke: black;"/>94
  <text x="3002" y="1833">THERMAL ZONE: ZONE12 REHEAT COIL</text>
  <rect x="3000" y="460" width="200" height="20" style="fill:salmon; stroke: black;"/>95
  <text x="3002" y="473">THERMAL ZONE: ZONE12 REHEAT COIL</text>
  <rect x="3000" y="1860" width="200" height="20" style="fill:salmon; stroke: black;"/>96
  <text x="3002" y="1873">THERMAL ZONE: ZONE13 REHEAT COIL</text>
  <rect x="3000" y="500" width="200" height="20" style="fill:salmon; stroke: black;"/>97
  <text x="3002" y="513">THERMAL ZONE: ZONE13 REHEAT COIL</text>
  <rect x="3000" y="1900" width="200" height="20" style="fill:salmon; stroke: black;"/>98
  <text x="3002" y="1913">THERMAL ZONE: ZONE14 REHEAT COIL</text>
  <rect x="3000" y="540" width="200" height="20" style="fill:salmon; stroke: black;"/>99
  <text x="3002" y="553">THERMAL ZONE: ZONE14 REHEAT COIL</text>
  <rect x="3000" y="1940" width="200" height="20" style="fill:salmon; stroke: black;"/>100
  <text x="3002" y="1953">THERMAL ZONE: ZONE15 REHEAT COIL</text>
  <rect x="3000" y="580" width="200" height="20" style="fill:salmon; stroke: black;"/>101
  <text x="3002" y="593">THERMAL ZONE: ZONE15 REHEAT COIL</text>
  <rect x="3000" y="1980" width="200" height="20" style="fill:salmon; stroke: black;"/>102
  <text x="3002" y="1993">THERMAL ZONE: ZONE16 REHEAT COIL</text>
  <rect x="3000" y="620" width="200" height="20" style="fill:salmon; stroke: black;"/>103
  <text x="3002" y="633">THERMAL ZONE: ZONE16 REHEAT COIL</text>
  <rect x="3000" y="2020" width="200" height="20" style="fill:salmon; stroke: black;"/>104
  <text x="3002" y="2033">THERMAL ZONE: ZONE17 REHEAT COIL</text>
  <rect x="3000" y="660" width="200" height="20" style="fill:salmon; stroke: black;"/>105
  <text x="3002" y="673">THERMAL ZONE: ZONE17 REHEAT COIL</text>
  <rect x="3000" y="2060" width="200" height="20" style="fill:salmon; stroke: black;"/>106
  <text x="3002" y="2073">THERMAL ZONE: ZONE18 REHEAT COIL</text>
  <rect x="3000" y="700" width="200" height="20" style="fill:salmon; stroke: black;"/>107
  <text x="3002" y="713">THERMAL ZONE: ZONE18 REHEAT COIL</text>
  <rect x="3000" y="2100" width="200" height="20" style="fill:salmon; stroke: black;"/>108
  <text x="3002" y="2113">THERMAL ZONE: ZONE19 REHEAT COIL</text>
  <rect x="3000" y="740" width="200" height="20" style="fill:salmon; stroke: black;"/>109
  <text x="3002" y="753">THERMAL ZONE: ZONE19 REHEAT COIL</text>
  <rect x="3000" y="2140" width="200" height="20" style="fill:salmon; stroke: black;"/>110
  <text x="3002" y="2153">THERMAL ZONE: ZONE20 REHEAT COIL</text>
  <rect x="3000" y="780" width="200" height="20" style="fill:salmon; stroke: black;"/>111
  <text x="3002" y="793">THERMAL ZONE: ZONE20 REHEAT COIL</text>
  <rect x="3000" y="2180" width="200" height="20" style="fill:salmon; stroke: black;"/>112
  <text x="3002" y="2193">THERMAL ZONE: ZONE21 REHEAT COIL</text>
  <rect x="3000" y="820" width="200" height="20" style="fill:salmon; stroke: black;"/>113
  <text x="3002" y="833">THERMAL ZONE: ZONE21 REHEAT COIL</text>
  <rect x="3000" y="2220" width="200" height="20" style="fill:salmon; stroke: black;"/>114
  <text x="3002" y="2233">THERMAL ZONE: ZONE22 REHEAT COIL</text>
  <rect x="3000" y="860" width="200" height="20" style="fill:salmon; stroke: black;"/>115
  <text x="3002" y="873">THERMAL ZONE: ZONE22 REHEAT COIL</text>
  <rect x="3000" y="2260" width="200" height="20" style="fill:salmon; stroke: black;"/>116
  <text x="3002" y="2273">THERMAL ZONE: ZONE23 REHEAT COIL</text>
  <rect x="3000" y="900" width="200" height="20" style="fill:salmon; stroke: black;"/>117
  <text x="3002" y="913">THERMAL ZONE: ZONE23 REHEAT COIL</text>
  <rect x="3000" y="2300" width="200" height="20" style="fill:salmon; stroke: black;"/>118
  <text x="3002" y="2313">THERMAL ZONE: ZONE24 REHEAT COIL</text>
  <rect x="3000" y="940" width="200" height="20" style="fill:salmon; stroke: black;"/>119
  <text x="3002" y="953">THERMAL ZONE: ZONE24 REHEAT COIL</text>
  <rect x="3000" y="2340" width="200" height="20" style="fill:salmon; stroke: black;"/>120
  <text x="3002" y="2353">THERMAL ZONE: ZONE25 REHEAT COIL</text>
  <rect x="3000" y="980" width="200" height="20" style="fill:salmon; stroke: black;"/>121
  <text x="3002" y="993">THERMAL ZONE: ZONE25 REHEAT COIL</text>
  <rect x="3000" y="2380" width="200" height="20" style="fill:salmon; stroke: black;"/>122
  <text x="3002" y="2393">THERMAL ZONE: ZONE26 REHEAT COIL</text>
  <rect x="3000" y="1020" width="200" height="20" style="fill:salmon; stroke: black;"/>123
  <text x="3002" y="1033">THERMAL ZONE: ZONE26 REHEAT COIL</text>
  <rect x="3000" y="2420" width="200" height="20" style="fill:salmon; stroke: black;"/>124
  <text x="3002" y="2433">THERMAL ZONE: ZONE27 REHEAT COIL</text>
  <rect x="3000" y="1060" width="200" height="20" style="fill:salmon; stroke: black;"/>125
  <text x="3002" y="1073">THERMAL ZONE: ZONE27 REHEAT COIL</text>
  <rect x="3000" y="2460" width="200" height="20" style="fill:salmon; stroke: black;"/>126
  <text x="3002" y="2473">VAV SYS 1 HEATING COIL</text>
  <rect x="1400" y="20" width="200" height="20" style="fill:salmon; stroke: black;"/>127
  <text x="1402" y="33">VAV SYS 1 HEATING COIL</text>
  <rect x="1950" y="2620" width="200" height="20" style="fill:skyblue; stroke: black;"/>128
  <text x="1952" y="2633">VAV SYS 1 COOLING COIL</text>
  <rect x="1000" y="20" width="200" height="20" style="fill:skyblue; stroke: black;"/>129
  <text x="1002" y="33">VAV SYS 1 COOLING COIL</text>
  <rect x="2600" y="60" width="200" height="20" style="fill:wheat; stroke: black;"/>130
  <text x="2602" y="73">THERMAL ZONE: ZONE2 VAV REHEAT</text>
  <rect x="2600" y="100" width="200" height="20" style="fill:wheat; stroke: black;"/>131
  <text x="2602" y="113">THERMAL ZONE: ZONE3 VAV REHEAT</text>
  <rect x="2600" y="140" width="200" height="20" style="fill:wheat; stroke: black;"/>132
  <text x="2602" y="153">THERMAL ZONE: ZONE4 VAV REHEAT</text>
  <rect x="2600" y="180" width="200" height="20" style="fill:wheat; stroke: black;"/>133
  <text x="2602" y="193">THERMAL ZONE: ZONE5 VAV REHEAT</text>
  <rect x="2600" y="220" width="200" height="20" style="fill:wheat; stroke: black;"/>134
  <text x="2602" y="233">THERMAL ZONE: ZONE6 VAV REHEAT</text>
  <rect x="2600" y="260" width="200" height="20" style="fill:wheat; stroke: black;"/>135
  <text x="2602" y="273">THERMAL ZONE: ZONE7 VAV REHEAT</text>
  <rect x="2600" y="300" width="200" height="20" style="fill:wheat; stroke: black;"/>136
  <text x="2602" y="313">THERMAL ZONE: ZONE8 VAV REHEAT</text>
  <rect x="2600" y="340" width="200" height="20" style="fill:wheat; stroke: black;"/>137
  <text x="2602" y="353">THERMAL ZONE: ZONE9 VAV REHEAT</text>
  <rect x="2600" y="380" width="200" height="20" style="fill:wheat; stroke: black;"/>138
  <text x="2602" y="393">THERMAL ZONE: ZONE10 VAV REHEAT</text>
  <rect x="2600" y="420" width="200" height="20" style="fill:wheat; stroke: black;"/>139
  <text x="2602" y="433">THERMAL ZONE: ZONE11 VAV REHEAT</text>
  <rect x="2600" y="460" width="200" height="20" style="fill:wheat; stroke: black;"/>140
  <text x="2602" y="473">THERMAL ZONE: ZONE12 VAV REHEAT</text>
  <rect x="2600" y="500" width="200" height="20" style="fill:wheat; stroke: black;"/>141
  <text x="2602" y="513">THERMAL ZONE: ZONE13 VAV REHEAT</text>
  <rect x="2600" y="540" width="200" height="20" style="fill:wheat; stroke: black;"/>142
  <text x="2602" y="553">THERMAL ZONE: ZONE14 VAV REHEAT</text>
  <rect x="2600" y="580" width="200" height="20" style="fill:wheat; stroke: black;"/>143
  <text x="2602" y="593">THERMAL ZONE: ZONE15 VAV REHEAT</text>
  <rect x="2600" y="620" width="200" height="20" style="fill:wheat; stroke: black;"/>144
  <text x="2602" y="633">THERMAL ZONE: ZONE16 VAV REHEAT</text>
  <rect x="2600" y="660" width="200" height="20" style="fill:wheat; stroke: black;"/>145
  <text x="2602" y="673">THERMAL ZONE: ZONE17 VAV REHEAT</text>
  <rect x="2600" y="700" width="200" height="20" style="fill:wheat; stroke: black;"/>146
  <text x="2602" y="713">THERMAL ZONE: ZONE18 VAV REHEAT</text>
  <rect x="2600" y="740" width="200" height="20" style="fill:wheat; stroke: black;"/>147
  <text x="2602" y="753">THERMAL ZONE: ZONE19 VAV REHEAT</text>
  <rect x="2600" y="780" width="200" height="20" style="fill:wheat; stroke: black;"/>148
  <text x="2602" y="793">THERMAL ZONE: ZONE20 VAV REHEAT</text>
  <rect x="2600" y="820" width="200" height="20" style="fill:wheat; stroke: black;"/>149
  <text x="2602" y="833">THERMAL ZONE: ZONE21 VAV REHEAT</text>
  <rect x="2600" y="860" width="200" height="20" style="fill:wheat; stroke: black;"/>150
  <text x="2602" y="873">THERMAL ZONE: ZONE22 VAV REHEAT</text>
  <rect x="2600" y="900" width="200" height="20" style="fill:wheat; stroke: black;"/>151
  <text x="2602" y="913">THERMAL ZONE: ZONE23 VAV REHEAT</text>
  <rect x="2600" y="940" width="200" height="20" style="fill:wheat; stroke: black;"/>152
  <text x="2602" y="953">THERMAL ZONE: ZONE24 VAV REHEAT</text>
  <rect x="2600" y="980" width="200" height="20" style="fill:wheat; stroke: black;"/>153
  <text x="2602" y="993">THERMAL ZONE: ZONE25 VAV REHEAT</text>
  <rect x="2600" y="1020" width="200" height="20" style="fill:wheat; stroke: black;"/>154
  <text x="2602" y="1033">THERMAL ZONE: ZONE26 VAV REHEAT</text>
  <rect x="2600" y="1060" width="200" height="20" style="fill:wheat; stroke: black;"/>155
  <text x="2602" y="1073">THERMAL ZONE: ZONE27 VAV REHEAT</text>
  <rect x="3800" y="1060" width="200" height="20" style="fill:lightgreen; stroke: black;"/>158
  <text x="3802" y="1073">VAV SYS 1 RETURN PLENUM</text>
  <rect x="600" y="20" width="200" height="20" style="fill:lawngreen; stroke: black;"/>159
  <text x="602" y="33">VAV SYS 1 OA MIXING BOX</text>
  <rect x="200" y="20" width="200" height="20" style="fill:silver; stroke: black;"/>160
  <text x="202" y="33">VAV SYS 1 RETURN FAN</text>
  <rect x="1800" y="20" width="200" height="20" style="fill:silver; stroke: black;"/>161
  <text x="1802" y="33">VAV SYS 1 SUPPLY FAN</text>
  <rect x="200" y="1140" width="200" height="20" style="fill:springgreen; stroke: black;"/>163
  <text x="202" y="1153">CHILLED WATER LOOP CNDW SUPPLY PUMP</text>
  <rect x="200" y="1300" width="200" height="20" style="fill:springgreen; stroke: black;"/>164
  <text x="202" y="1313">HOT WATER LOOP HW SUPPLY PUMP</text>
  <rect x="200" y="2540" width="200" height="20" style="fill:springgreen; stroke: black;"/>165
  <text x="202" y="2553">CHILLED WATER LOOP CHW SUPPLY PUMP</text>
  <rect x="3400" y="60" width="200" height="20" style="fill:chartreuse; stroke: black;"/>166
  <text x="3402" y="73">THERMAL ZONE: ZONE2</text>
  <rect x="3400" y="100" width="200" height="20" style="fill:chartreuse; stroke: black;"/>167
  <text x="3402" y="113">THERMAL ZONE: ZONE3</text>
  <rect x="3400" y="140" width="200" height="20" style="fill:chartreuse; stroke: black;"/>168
  <text x="3402" y="153">THERMAL ZONE: ZONE4</text>
  <rect x="3400" y="180" width="200" height="20" style="fill:chartreuse; stroke: black;"/>169
  <text x="3402" y="193">THERMAL ZONE: ZONE5</text>
  <rect x="3400" y="220" width="200" height="20" style="fill:chartreuse; stroke: black;"/>170
  <text x="3402" y="233">THERMAL ZONE: ZONE6</text>
  <rect x="3400" y="260" width="200" height="20" style="fill:chartreuse; stroke: black;"/>171
  <text x="3402" y="273">THERMAL ZONE: ZONE7</text>
  <rect x="3400" y="300" width="200" height="20" style="fill:chartreuse; stroke: black;"/>172
  <text x="3402" y="313">THERMAL ZONE: ZONE8</text>
  <rect x="3400" y="340" width="200" height="20" style="fill:chartreuse; stroke: black;"/>173
  <text x="3402" y="353">THERMAL ZONE: ZONE9</text>
  <rect x="3400" y="380" width="200" height="20" style="fill:chartreuse; stroke: black;"/>174
  <text x="3402" y="393">THERMAL ZONE: ZONE10</text>
  <rect x="3400" y="420" width="200" height="20" style="fill:chartreuse; stroke: black;"/>175
  <text x="3402" y="433">THERMAL ZONE: ZONE11</text>
  <rect x="3400" y="460" width="200" height="20" style="fill:chartreuse; stroke: black;"/>176
  <text x="3402" y="473">THERMAL ZONE: ZONE12</text>
  <rect x="3400" y="500" width="200" height="20" style="fill:chartreuse; stroke: black;"/>177
  <text x="3402" y="513">THERMAL ZONE: ZONE13</text>
  <rect x="3400" y="540" width="200" height="20" style="fill:chartreuse; stroke: black;"/>178
  <text x="3402" y="553">THERMAL ZONE: ZONE14</text>
  <rect x="3400" y="580" width="200" height="20" style="fill:chartreuse; stroke: black;"/>179
  <text x="3402" y="593">THERMAL ZONE: ZONE15</text>
  <rect x="3400" y="620" width="200" height="20" style="fill:chartreuse; stroke: black;"/>180
  <text x="3402" y="633">THERMAL ZONE: ZONE16</text>
  <rect x="3400" y="660" width="200" height="20" style="fill:chartreuse; stroke: black;"/>181
  <text x="3402" y="673">THERMAL ZONE: ZONE17</text>
  <rect x="3400" y="700" width="200" height="20" style="fill:chartreuse; stroke: black;"/>182
  <text x="3402" y="713">THERMAL ZONE: ZONE18</text>
  <rect x="3400" y="740" width="200" height="20" style="fill:chartreuse; stroke: black;"/>183
  <text x="3402" y="753">THERMAL ZONE: ZONE19</text>
  <rect x="3400" y="780" width="200" height="20" style="fill:chartreuse; stroke: black;"/>184
  <text x="3402" y="793">THERMAL ZONE: ZONE20</text>
  <rect x="3400" y="820" width="200" height="20" style="fill:chartreuse; stroke: black;"/>185
  <text x="3402" y="833">THERMAL ZONE: ZONE21</text>
  <rect x="3400" y="860" width="200" height="20" style="fill:chartreuse; stroke: black;"/>186
  <text x="3402" y="873">THERMAL ZONE: ZONE22</text>
  <rect x="3400" y="900" width="200" height="20" style="fill:chartreuse; stroke: black;"/>187
  <text x="3402" y="913">THERMAL ZONE: ZONE23</text>
  <rect x="3400" y="940" width="200" height="20" style="fill:chartreuse; stroke: black;"/>188
  <text x="3402" y="953">THERMAL ZONE: ZONE24</text>
  <rect x="3400" y="980" width="200" height="20" style="fill:chartreuse; stroke: black;"/>189
  <text x="3402" y="993">THERMAL ZONE: ZONE25</text>
  <rect x="3400" y="1020" width="200" height="20" style="fill:chartreuse; stroke: black;"/>190
  <text x="3402" y="1033">THERMAL ZONE: ZONE26</text>
  <rect x="3400" y="1060" width="200" height="20" style="fill:chartreuse; stroke: black;"/>191
  <text x="3402" y="1073">THERMAL ZONE: ZONE27</text>
  <line x1="400" y1="2710" x2="600" y2="30" style="stroke:black;"/>
  <line x1="1200" y1="1350" x2="1400" y2="1350" style="stroke:black;"/>
  <line x1="2000" y1="1350" x2="2200" y2="1350" style="stroke:black;"/>
  <line x1="2400" y1="1350" x2="2600" y2="1350" style="stroke:black;"/>
  <line x1="3200" y1="1350" x2="3400" y2="2470" style="stroke:black;"/>
  <line x1="900" y1="2550" x2="950" y2="2590" style="stroke:black;"/>
  <line x1="1400" y1="2590" x2="1450" y2="2590" style="stroke:black;"/>
  <line x1="1650" y1="2590" x2="1700" y2="2590" style="stroke:black;"/>
  <line x1="2150" y1="2590" x2="2200" y2="2630" style="stroke:black;"/>
  <line x1="1400" y1="1190" x2="1450" y2="1190" style="stroke:black;"/>
  <line x1="900" y1="1150" x2="950" y2="1190" style="stroke:black;"/>
  <line x1="1650" y1="1190" x2="1700" y2="1190" style="stroke:black;"/>
  <line x1="2150" y1="1190" x2="2200" y2="1230" style="stroke:black;"/>
  <line x1="2800" y1="1350" x2="3000" y2="1350" style="stroke:black;"/>
  <line x1="2800" y1="1350" x2="3000" y2="1390" style="stroke:black;"/>
  <line x1="2800" y1="1350" x2="3000" y2="1430" style="stroke:black;"/>
  <line x1="2800" y1="1350" x2="3000" y2="1470" style="stroke:black;"/>
  <line x1="2800" y1="1350" x2="3000" y2="1510" style="stroke:black;"/>
  <line x1="2800" y1="1350" x2="3000" y2="1550" style="stroke:black;"/>
  <line x1="2800" y1="1350" x2="3000" y2="1590" style="stroke:black;"/>
  <line x1="2800" y1="1350" x2="3000" y2="1630" style="stroke:black;"/>
  <line x1="2800" y1="1350" x2="3000" y2="1670" style="stroke:black;"/>
  <line x1="2800" y1="1350" x2="3000" y2="1710" style="stroke:black;"/>
  <line x1="2800" y1="1350" x2="3000" y2="1750" style="stroke:black;"/>
  <line x1="2800" y1="1350" x2="3000" y2="1790" style="stroke:black;"/>
  <line x1="2800" y1="1350" x2="3000" y2="1830" style="stroke:black;"/>
  <line x1="2800" y1="1350" x2="3000" y2="1870" style="stroke:black;"/>
  <line x1="2800" y1="1350" x2="3000" y2="1910" style="stroke:black;"/>
  <line x1="2800" y1="1350" x2="3000" y2="1950" style="stroke:black;"/>
  <line x1="2800" y1="1350" x2="3000" y2="1990" style="stroke:black;"/>
  <line x1="2800" y1="1350" x2="3000" y2="2030" style="stroke:black;"/>
  <line x1="2800" y1="1350" x2="3000" y2="2070" style="stroke:black;"/>
  <line x1="2800" y1="1350" x2="3000" y2="2110" style="stroke:black;"/>
  <line x1="2800" y1="1350" x2="3000" y2="2150" style="stroke:black;"/>
  <line x1="2800" y1="1350" x2="3000" y2="2190" style="stroke:black;"/>
  <line x1="2800" y1="1350" x2="3000" y2="2230" style="stroke:black;"/>
  <line x1="2800" y1="1350" x2="3000" y2="2270" style="stroke:black;"/>
  <line x1="2800" y1="1350" x2="3000" y2="2310" style="stroke:black;"/>
  <line x1="2800" y1="1350" x2="3000" y2="2350" style="stroke:black;"/>
  <line x1="2800" y1="1350" x2="3000" y2="2390" style="stroke:black;"/>
  <line x1="2800" y1="1350" x2="3000" y2="2430" style="stroke:black;"/>
  <line x1="2800" y1="1350" x2="3000" y2="2470" style="stroke:black;"/>
  <line x1="3600" y1="2470" x2="3800" y2="2470" style="stroke:black;"/>
  <line x1="1200" y1="1310" x2="1400" y2="1350" style="stroke:black;"/>
  <line x1="800" y1="1310" x2="1000" y2="1310" style="stroke:black;"/>
  <line x1="800" y1="1310" x2="1000" y2="1350" style="stroke:black;"/>
  <line x1="1600" y1="1350" x2="1800" y2="1350" style="stroke:black;"/>
  <line x1="1900" y1="2590" x2="1950" y2="2590" style="stroke:black;"/>
  <line x1="1900" y1="2590" x2="1950" y2="2630" style="stroke:black;"/>
  <line x1="2400" y1="2630" x2="2450" y2="2630" style="stroke:black;"/>
  <line x1="900" y1="2590" x2="950" y2="2590" style="stroke:black;"/>
  <line x1="2150" y1="1230" x2="2200" y2="1230" style="stroke:black;"/>
  <line x1="650" y1="2550" x2="700" y2="2550" style="stroke:black;"/>
  <line x1="650" y1="2550" x2="700" y2="2590" style="stroke:black;"/>
  <line x1="1150" y1="2590" x2="1200" y2="2590" style="stroke:black;"/>
  <line x1="1900" y1="1190" x2="1950" y2="1190" style="stroke:black;"/>
  <line x1="1900" y1="1190" x2="1950" y2="1230" style="stroke:black;"/>
  <line x1="2400" y1="1230" x2="2450" y2="1230" style="stroke:black;"/>
  <line x1="900" y1="1190" x2="950" y2="1190" style="stroke:black;"/>
  <line x1="650" y1="1150" x2="700" y2="1150" style="stroke:black;"/>
  <line x1="650" y1="1150" x2="700" y2="1190" style="stroke:black;"/>
  <line x1="1150" y1="1190" x2="1200" y2="1190" style="stroke:black;"/>
  <line x1="2400" y1="30" x2="2600" y2="30" style="stroke:black;"/>
  <line x1="2400" y1="30" x2="2600" y2="70" style="stroke:black;"/>
  <line x1="2400" y1="30" x2="2600" y2="110" style="stroke:black;"/>
  <line x1="2400" y1="30" x2="2600" y2="150" style="stroke:black;"/>
  <line x1="2400" y1="30" x2="2600" y2="190" style="stroke:black;"/>
  <line x1="2400" y1="30" x2="2600" y2="230" style="stroke:black;"/>
  <line x1="2400" y1="30" x2="2600" y2="270" style="stroke:black;"/>
  <line x1="2400" y1="30" x2="2600" y2="310" style="stroke:black;"/>
  <line x1="2400" y1="30" x2="2600" y2="350" style="stroke:black;"/>
  <line x1="2400" y1="30" x2="2600" y2="390" style="stroke:black;"/>
  <line x1="2400" y1="30" x2="2600" y2="430" style="stroke:black;"/>
  <line x1="2400" y1="30" x2="2600" y2="470" style="stroke:black;"/>
  <line x1="2400" y1="30" x2="2600" y2="510" style="stroke:black;"/>
  <line x1="2400" y1="30" x2="2600" y2="550" style="stroke:black;"/>
  <line x1="2400" y1="30" x2="2600" y2="590" style="stroke:black;"/>
  <line x1="2400" y1="30" x2="2600" y2="630" style="stroke:black;"/>
  <line x1="2400" y1="30" x2="2600" y2="670" style="stroke:black;"/>
  <line x1="2400" y1="30" x2="2600" y2="710" style="stroke:black;"/>
  <line x1="2400" y1="30" x2="2600" y2="750" style="stroke:black;"/>
  <line x1="2400" y1="30" x2="2600" y2="790" style="stroke:black;"/>
  <line x1="2400" y1="30" x2="2600" y2="830" style="stroke:black;"/>
  <line x1="2400" y1="30" x2="2600" y2="870" style="stroke:black;"/>
  <line x1="2400" y1="30" x2="2600" y2="910" style="stroke:black;"/>
  <line x1="2400" y1="30" x2="2600" y2="950" style="stroke:black;"/>
  <line x1="2400" y1="30" x2="2600" y2="990" style="stroke:black;"/>
  <line x1="2400" y1="30" x2="2600" y2="1030" style="stroke:black;"/>
  <line x1="2400" y1="30" x2="2600" y2="1070" style="stroke:black;"/>
  <line x1="2800" y1="30" x2="3000" y2="30" style="stroke:black;"/>
  <line x1="3200" y1="1390" x2="3400" y2="2470" style="stroke:black;"/>
  <line x1="3200" y1="30" x2="3400" y2="30" style="stroke:black;"/>
  <line x1="3200" y1="1430" x2="3400" y2="2470" style="stroke:black;"/>
  <line x1="3200" y1="70" x2="3400" y2="70" style="stroke:black;"/>
  <line x1="3200" y1="1470" x2="3400" y2="2470" style="stroke:black;"/>
  <line x1="3200" y1="110" x2="3400" y2="110" style="stroke:black;"/>
  <line x1="3200" y1="1510" x2="3400" y2="2470" style="stroke:black;"/>
  <line x1="3200" y1="150" x2="3400" y2="150" style="stroke:black;"/>
  <line x1="3200" y1="1550" x2="3400" y2="2470" style="stroke:black;"/>
  <line x1="3200" y1="190" x2="3400" y2="190" style="stroke:black;"/>
  <line x1="3200" y1="1590" x2="3400" y2="2470" style="stroke:black;"/>
  <line x1="3200" y1="230" x2="3400" y2="230" style="stroke:black;"/>
  <line x1="3200" y1="1630" x2="3400" y2="2470" style="stroke:black;"/>
  <line x1="3200" y1="270" x2="3400" y2="270" style="stroke:black;"/>
  <line x1="3200" y1="1670" x2="3400" y2="2470" style="stroke:black;"/>
  <line x1="3200" y1="310" x2="3400" y2="310" style="stroke:black;"/>
  <line x1="3200" y1="1710" x2="3400" y2="2470" style="stroke:black;"/>
  <line x1="3200" y1="350" x2="3400" y2="350" style="stroke:black;"/>
  <line x1="3200" y1="1750" x2="3400" y2="2470" style="stroke:black;"/>
  <line x1="3200" y1="390" x2="3400" y2="390" style="stroke:black;"/>
  <line x1="3200" y1="1790" x2="3400" y2="2470" style="stroke:black;"/>
  <line x1="3200" y1="430" x2="3400" y2="430" style="stroke:black;"/>
  <line x1="3200" y1="1830" x2="3400" y2="2470" style="stroke:black;"/>
  <line x1="3200" y1="470" x2="3400" y2="470" style="stroke:black;"/>
  <line x1="3200" y1="1870" x2="3400" y2="2470" style="stroke:black;"/>
  <line x1="3200" y1="510" x2="3400" y2="510" style="stroke:black;"/>
  <line x1="3200" y1="1910" x2="3400" y2="2470" style="stroke:black;"/>
  <line x1="3200" y1="550" x2="3400" y2="550" style="stroke:black;"/>
  <line x1="3200" y1="1950" x2="3400" y2="2470" style="stroke:black;"/>
  <line x1="3200" y1="590" x2="3400" y2="590" style="stroke:black;"/>
  <line x1="3200" y1="1990" x2="3400" y2="2470" style="stroke:black;"/>
  <line x1="3200" y1="630" x2="3400" y2="630" style="stroke:black;"/>
  <line x1="3200" y1="2030" x2="3400" y2="2470" style="stroke:black;"/>
  <line x1="3200" y1="670" x2="3400" y2="670" style="stroke:black;"/>
  <line x1="3200" y1="2070" x2="3400" y2="2470" style="stroke:black;"/>
  <line x1="3200" y1="710" x2="3400" y2="710" style="stroke:black;"/>
  <line x1="3200" y1="2110" x2="3400" y2="2470" style="stroke:black;"/>
  <line x1="3200" y1="750" x2="3400" y2="750" style="stroke:black;"/>
  <line x1="3200" y1="2150" x2="3400" y2="2470" style="stroke:black;"/>
  <line x1="3200" y1="790" x2="3400" y2="790" style="stroke:black;"/>
  <line x1="3200" y1="2190" x2="3400" y2="2470" style="stroke:black;"/>
  <line x1="3200" y1="830" x2="3400" y2="830" style="stroke:black;"/>
  <line x1="3200" y1="2230" x2="3400" y2="2470" style="stroke:black;"/>
  <line x1="3200" y1="870" x2="3400" y2="870" style="stroke:black;"/>
  <line x1="3200" y1="2270" x2="3400" y2="2470" style="stroke:black;"/>
  <line x1="3200" y1="910" x2="3400" y2="910" style="stroke:black;"/>
  <line x1="3200" y1="2310" x2="3400" y2="2470" style="stroke:black;"/>
  <line x1="3200" y1="950" x2="3400" y2="950" style="stroke:black;"/>
  <line x1="3200" y1="2350" x2="3400" y2="2470" style="stroke:black;"/>
  <line x1="3200" y1="990" x2="3400" y2="990" style="stroke:black;"/>
  <line x1="3200" y1="2390" x2="3400" y2="2470" style="stroke:black;"/>
  <line x1="3200" y1="1030" x2="3400" y2="1030" style="stroke:black;"/>
  <line x1="3200" y1="2430" x2="3400" y2="2470" style="stroke:black;"/>
  <line x1="3200" y1="1070" x2="3400" y2="1070" style="stroke:black;"/>
  <line x1="3200" y1="2470" x2="3400" y2="2470" style="stroke:black;"/>
  <line x1="1600" y1="30" x2="1800" y2="30" style="stroke:black;"/>
  <line x1="2150" y1="2630" x2="2200" y2="2630" style="stroke:black;"/>
  <line x1="1200" y1="30" x2="1400" y2="30" style="stroke:black;"/>
  <line x1="2800" y1="70" x2="3000" y2="70" style="stroke:black;"/>
  <line x1="2800" y1="110" x2="3000" y2="110" style="stroke:black;"/>
  <line x1="2800" y1="150" x2="3000" y2="150" style="stroke:black;"/>
  <line x1="2800" y1="190" x2="3000" y2="190" style="stroke:black;"/>
  <line x1="2800" y1="230" x2="3000" y2="230" style="stroke:black;"/>
  <line x1="2800" y1="270" x2="3000" y2="270" style="stroke:black;"/>
  <line x1="2800" y1="310" x2="3000" y2="310" style="stroke:black;"/>
  <line x1="2800" y1="350" x2="3000" y2="350" style="stroke:black;"/>
  <line x1="2800" y1="390" x2="3000" y2="390" style="stroke:black;"/>
  <line x1="2800" y1="430" x2="3000" y2="430" style="stroke:black;"/>
  <line x1="2800" y1="470" x2="3000" y2="470" style="stroke:black;"/>
  <line x1="2800" y1="510" x2="3000" y2="510" style="stroke:black;"/>
  <line x1="2800" y1="550" x2="3000" y2="550" style="stroke:black;"/>
  <line x1="2800" y1="590" x2="3000" y2="590" style="stroke:black;"/>
  <line x1="2800" y1="630" x2="3000" y2="630" style="stroke:black;"/>
  <line x1="2800" y1="670" x2="3000" y2="670" style="stroke:black;"/>
  <line x1="2800" y1="710" x2="3000" y2="710" style="stroke:black;"/>
  <line x1="2800" y1="750" x2="3000" y2="750" style="stroke:black;"/>
  <line x1="2800" y1="790" x2="3000" y2="790" style="stroke:black;"/>
  <line x1="2800" y1="830" x2="3000" y2="830" style="stroke:black;"/>
  <line x1="2800" y1="870" x2="3000" y2="870" style="stroke:black;"/>
  <line x1="2800" y1="910" x2="3000" y2="910" style="stroke:black;"/>
  <line x1="2800" y1="950" x2="3000" y2="950" style="stroke:black;"/>
  <line x1="2800" y1="990" x2="3000" y2="990" style="stroke:black;"/>
  <line x1="2800" y1="1030" x2="3000" y2="1030" style="stroke:black;"/>
  <line x1="2800" y1="1070" x2="3000" y2="1070" style="stroke:black;"/>
  <line x1="800" y1="30" x2="1000" y2="30" style="stroke:black;"/>
  <line x1="400" y1="30" x2="600" y2="30" style="stroke:black;"/>
  <line x1="2000" y1="30" x2="2200" y2="30" style="stroke:black;"/>
  <line x1="400" y1="1150" x2="450" y2="1150" style="stroke:black;"/>
  <line x1="400" y1="1310" x2="600" y2="1310" style="stroke:black;"/>
  <line x1="400" y1="2550" x2="450" y2="2550" style="stroke:black;"/>
  <line x1="3600" y1="30" x2="3800" y2="1070" style="stroke:black;"/>
  <line x1="3600" y1="70" x2="3800" y2="1070" style="stroke:black;"/>
  <line x1="3600" y1="110" x2="3800" y2="1070" style="stroke:black;"/>
  <line x1="3600" y1="150" x2="3800" y2="1070" style="stroke:black;"/>
  <line x1="3600" y1="190" x2="3800" y2="1070" style="stroke:black;"/>
  <line x1="3600" y1="230" x2="3800" y2="1070" style="stroke:black;"/>
  <line x1="3600" y1="270" x2="3800" y2="1070" style="stroke:black;"/>
  <line x1="3600" y1="310" x2="3800" y2="1070" style="stroke:black;"/>
  <line x1="3600" y1="350" x2="3800" y2="1070" style="stroke:black;"/>
  <line x1="3600" y1="390" x2="3800" y2="1070" style="stroke:black;"/>
  <line x1="3600" y1="430" x2="3800" y2="1070" style="stroke:black;"/>
  <line x1="3600" y1="470" x2="3800" y2="1070" style="stroke:black;"/>
  <line x1="3600" y1="510" x2="3800" y2="1070" style="stroke:black;"/>
  <line x1="3600" y1="550" x2="3800" y2="1070" style="stroke:black;"/>
  <line x1="3600" y1="590" x2="3800" y2="1070" style="stroke:black;"/>
  <line x1="3600" y1="630" x2="3800" y2="1070" style="stroke:black;"/>
  <line x1="3600" y1="670" x2="3800" y2="1070" style="stroke:black;"/>
  <line x1="3600" y1="710" x2="3800" y2="1070" style="stroke:black;"/>
  <line x1="3600" y1="750" x2="3800" y2="1070" style="stroke:black;"/>
  <line x1="3600" y1="790" x2="3800" y2="1070" style="stroke:black;"/>
  <line x1="3600" y1="830" x2="3800" y2="1070" style="stroke:black;"/>
  <line x1="3600" y1="870" x2="3800" y2="1070" style="stroke:black;"/>
  <line x1="3600" y1="910" x2="3800" y2="1070" style="stroke:black;"/>
  <line x1="3600" y1="950" x2="3800" y2="1070" style="stroke:black;"/>
  <line x1="3600" y1="990" x2="3800" y2="1070" style="stroke:black;"/>
  <line x1="3600" y1="1030" x2="3800" y2="1070" style="stroke:black;"/>
  <line x1="3600" y1="1070" x2="3800" y2="1070" style="stroke:black;"/>
  <line x1="200" y1="30" x2="175" y2="30" style="stroke:black;"/>
  <line x1="175" y1="30" x2="175" y2="0" style="stroke:black;"/>
  <line x1="175" y1="0" x2="4025" y2="0" style="stroke:black;"/>
  <line x1="4025" y1="0" x2="4025" y2="1070" style="stroke:black;"/>
  <line x1="4025" y1="1070" x2="4000" y2="1070" style="stroke:black;"/>
  <line x1="200" y1="1150" x2="175" y2="1150" style="stroke:black;"/>
  <line x1="175" y1="1150" x2="175" y2="1120" style="stroke:black;"/>
  <line x1="175" y1="1120" x2="2675" y2="1120" style="stroke:black;"/>
  <line x1="2675" y1="1120" x2="2675" y2="1230" style="stroke:black;"/>
  <line x1="2675" y1="1230" x2="2650" y2="1230" style="stroke:black;"/>
  <line x1="200" y1="1310" x2="175" y2="1310" style="stroke:black;"/>
  <line x1="175" y1="1310" x2="175" y2="1280" style="stroke:black;"/>
  <line x1="175" y1="1280" x2="4025" y2="1280" style="stroke:black;"/>
  <line x1="4025" y1="1280" x2="4025" y2="2470" style="stroke:black;"/>
  <line x1="4025" y1="2470" x2="4000" y2="2470" style="stroke:black;"/>
  <line x1="200" y1="2550" x2="175" y2="2550" style="stroke:black;"/>
  <line x1="175" y1="2550" x2="175" y2="2520" style="stroke:black;"/>
  <line x1="175" y1="2520" x2="2675" y2="2520" style="stroke:black;"/>
  <line x1="2675" y1="2520" x2="2675" y2="2630" style="stroke:black;"/>
  <line x1="2675" y1="2630" x2="2650" y2="2630" style="stroke:black;"/>
  <text x="200" y="2760">Unused Non-Parent Objects:</text>
  <text x="220" y="2780">OutdoorAir:Node</text>
  <text x="220" y="2800">OutdoorAir:Node</text>
  <text x="220" y="2820">VAV SYS 1 COOLING SUPPLY AIR TEMP MANAGER</text>
  <text x="220" y="2840">VAV SYS 1 HEATING SUPPLY AIR TEMP MANAGER</text>
  <text x="220" y="2860">CHILLED WATER LOOP CHW TEMP MANAGER</text>
  <text x="220" y="2880">CHILLED WATER LOOP CNDW TEMP MANAGER</text>
  <text x="220" y="2900">HOT WATER LOOP HW TEMP MANAGER</text>
  <text x="220" y="2920">VAV SYS 1 COOLING COIL AIR TEMP MANAGER</text>
  <text x="220" y="2940">VAV SYS 1 HEATING COIL AIR TEMP MANAGER</text>
  <text x="220" y="2960">CHILLED WATER LOOP AVAILABILITY LOW TEMP OFF</text>
  <text x="220" y="2980">VAV SYS 1 COOLING COIL CONTROLLER</text>
  <text x="220" y="3000">VAV SYS 1 HEATING COIL CONTROLLER</text>
  <text x="220" y="3020">VAV SYS 1 OA CONTROLLER</text>
  <text x="200" y="3060">
The following are not supported: objects related to controls or ZoneHVAC:IdealLoadsAirSystem</text>
</g>
</svg>
